

<svg xmlns="http://www.w3.org/2000/svg" xmlns:xlink="http://www.w3.org/1999/xlink" width="400" zoomAndPan="magnify" viewBox="0 0 300 299.999988" height="400" preserveAspectRatio="xMidYMid meet" version="1.0"><defs><clipPath id="654ef5288b"><path d="M 24.179688 53.207031 L 270.179688 53.207031 L 270.179688 246.707031 L 24.179688 246.707031 Z M 24.179688 53.207031 " clip-rule="nonzero"/></clipPath></defs><rect x="-30" width="360" fill="#ffffff" y="-29.999999" height="359.999986" fill-opacity="1"/><rect x="-30" width="360" fill="#ffffff" y="-29.999999" height="359.999986" fill-opacity="1"/><g clip-path="url(#654ef5288b)"><path fill="#000000" d="M 147.175781 53.28125 C 79.339844 53.28125 24.148438 93.992188 24.148438 144.03125 C 24.148438 163.988281 33.132812 183.472656 49.5 199.257812 L 39.632812 239.445312 C 39.101562 241.613281 39.859375 243.894531 41.582031 245.3125 C 42.644531 246.1875 43.957031 246.636719 45.277344 246.636719 C 46.109375 246.636719 46.941406 246.460938 47.722656 246.097656 L 92.558594 225.355469 C 109.4375 231.503906 128.246094 234.78125 147.179688 234.78125 C 215.019531 234.78125 270.210938 194.070312 270.210938 144.03125 C 270.210938 93.992188 215.019531 53.28125 147.175781 53.28125 Z M 147.179688 223.164062 C 128.785156 223.164062 110.53125 219.878906 94.382812 213.675781 C 94.355469 213.664062 94.328125 213.664062 94.300781 213.652344 C 94.113281 213.582031 93.914062 213.542969 93.71875 213.492188 C 93.550781 213.449219 93.386719 213.386719 93.21875 213.359375 C 92.105469 213.175781 90.925781 213.308594 89.824219 213.816406 L 53.808594 230.476562 L 61.601562 198.726562 C 61.644531 198.558594 61.648438 198.386719 61.675781 198.21875 C 61.683594 198.164062 61.695312 198.109375 61.699219 198.054688 C 61.738281 197.730469 61.753906 197.414062 61.738281 197.097656 C 61.738281 197.042969 61.734375 196.992188 61.730469 196.9375 C 61.707031 196.625 61.664062 196.316406 61.59375 196.015625 C 61.578125 195.941406 61.558594 195.875 61.539062 195.804688 C 61.464844 195.527344 61.371094 195.257812 61.253906 194.996094 C 61.210938 194.898438 61.164062 194.804688 61.113281 194.707031 C 60.996094 194.480469 60.867188 194.253906 60.71875 194.042969 C 60.644531 193.9375 60.566406 193.832031 60.484375 193.726562 C 60.328125 193.535156 60.167969 193.355469 59.988281 193.183594 C 59.929688 193.128906 59.890625 193.0625 59.828125 193.007812 C 44.09375 178.855469 35.777344 161.914062 35.777344 144.023438 C 35.777344 100.390625 85.753906 64.890625 147.175781 64.890625 C 208.605469 64.890625 258.582031 100.390625 258.582031 144.023438 C 258.582031 187.652344 208.605469 223.164062 147.179688 223.164062 Z M 147.179688 223.164062 " fill-opacity="1" fill-rule="nonzero"/></g><path fill="#000000" d="M 152.523438 97.882812 C 152.464844 97.746094 152.382812 97.632812 152.316406 97.503906 C 152.214844 97.316406 152.125 97.128906 152.007812 96.953125 C 151.898438 96.792969 151.773438 96.65625 151.65625 96.507812 C 151.535156 96.363281 151.421875 96.214844 151.289062 96.078125 C 151.148438 95.941406 150.992188 95.820312 150.839844 95.695312 C 150.703125 95.582031 150.566406 95.460938 150.414062 95.359375 C 150.234375 95.242188 150.042969 95.148438 149.851562 95.046875 C 149.722656 94.980469 149.609375 94.898438 149.476562 94.84375 C 149.449219 94.832031 149.425781 94.828125 149.402344 94.820312 C 149.199219 94.734375 148.988281 94.683594 148.777344 94.621094 C 148.617188 94.574219 148.460938 94.515625 148.300781 94.480469 C 148.113281 94.445312 147.917969 94.441406 147.726562 94.421875 C 147.542969 94.402344 147.359375 94.367188 147.179688 94.367188 C 146.996094 94.367188 146.816406 94.402344 146.632812 94.417969 C 146.441406 94.4375 146.246094 94.441406 146.058594 94.480469 C 145.898438 94.511719 145.742188 94.574219 145.582031 94.617188 C 145.375 94.679688 145.164062 94.730469 144.964844 94.8125 C 144.9375 94.824219 144.910156 94.828125 144.886719 94.835938 C 144.75 94.894531 144.636719 94.980469 144.503906 95.046875 C 144.320312 95.144531 144.128906 95.238281 143.957031 95.355469 C 143.796875 95.460938 143.65625 95.582031 143.511719 95.703125 C 143.363281 95.820312 143.214844 95.933594 143.078125 96.070312 C 142.9375 96.210938 142.816406 96.367188 142.691406 96.519531 C 142.578125 96.660156 142.457031 96.792969 142.355469 96.945312 C 142.234375 97.128906 142.136719 97.324219 142.035156 97.523438 C 141.972656 97.644531 141.890625 97.753906 141.835938 97.882812 L 121.910156 144.226562 C 121.90625 144.234375 121.902344 144.238281 121.898438 144.246094 L 106.699219 179.589844 C 105.433594 182.539062 106.800781 185.953125 109.75 187.222656 C 110.496094 187.539062 111.277344 187.695312 112.042969 187.695312 C 114.296875 187.695312 116.441406 186.375 117.390625 184.175781 L 131.09375 152.304688 L 163.269531 152.304688 L 176.972656 184.175781 C 177.917969 186.375 180.0625 187.695312 182.320312 187.695312 C 183.089844 187.695312 183.863281 187.539062 184.613281 187.222656 C 187.5625 185.953125 188.925781 182.539062 187.664062 179.589844 Z M 136.089844 140.6875 L 147.179688 114.894531 L 158.269531 140.6875 Z M 136.089844 140.6875 " fill-opacity="1" fill-rule="nonzero"/></svg>