<svg xmlns="http://www.w3.org/2000/svg" xmlns:xlink="http://www.w3.org/1999/xlink" width="400" zoomAndPan="magnify" viewBox="0 0 300 299.999988" height="400" preserveAspectRatio="xMidYMid meet" version="1.0"><defs><clipPath id="94fd6de3c6"><path d="M 31.773438 46.847656 L 268.023438 46.847656 L 268.023438 253 L 31.773438 253 Z M 31.773438 46.847656 " clip-rule="nonzero"/></clipPath></defs><rect x="-30" width="360" fill="#ffffff" y="-29.999999" height="359.999986" fill-opacity="1"/><rect x="-30" width="360" fill="#ffffff" y="-29.999999" height="359.999986" fill-opacity="1"/><g clip-path="url(#94fd6de3c6)"><path fill="#000000" d="M 245.160156 107.890625 L 176.574219 107.890625 L 176.574219 69.761719 C 176.570312 69.011719 176.535156 68.265625 176.460938 67.519531 C 176.386719 66.773438 176.277344 66.035156 176.128906 65.300781 C 175.984375 64.566406 175.800781 63.839844 175.582031 63.121094 C 175.363281 62.40625 175.113281 61.703125 174.824219 61.007812 C 174.539062 60.316406 174.21875 59.640625 173.867188 58.980469 C 173.511719 58.320312 173.128906 57.679688 172.710938 57.054688 C 172.296875 56.433594 171.851562 55.832031 171.375 55.253906 C 170.902344 54.675781 170.398438 54.121094 169.867188 53.589844 C 169.339844 53.0625 168.785156 52.558594 168.207031 52.082031 C 167.628906 51.609375 167.027344 51.164062 166.40625 50.746094 C 165.785156 50.332031 165.140625 49.945312 164.480469 49.59375 C 163.820312 49.238281 163.148438 48.917969 162.457031 48.632812 C 161.761719 48.34375 161.058594 48.09375 160.34375 47.875 C 159.628906 47.65625 158.902344 47.472656 158.167969 47.328125 C 157.433594 47.179688 156.695312 47.070312 155.949219 46.996094 C 155.203125 46.921875 154.457031 46.882812 153.710938 46.882812 L 54.636719 46.882812 C 53.886719 46.882812 53.140625 46.921875 52.398438 46.996094 C 51.652344 47.070312 50.914062 47.179688 50.179688 47.328125 C 49.445312 47.472656 48.71875 47.65625 48.003906 47.875 C 47.285156 48.09375 46.582031 48.34375 45.890625 48.632812 C 45.199219 48.917969 44.523438 49.238281 43.863281 49.59375 C 43.203125 49.945312 42.5625 50.332031 41.941406 50.746094 C 41.320312 51.164062 40.71875 51.609375 40.140625 52.082031 C 39.5625 52.558594 39.007812 53.0625 38.476562 53.589844 C 37.949219 54.121094 37.445312 54.675781 36.972656 55.253906 C 36.496094 55.832031 36.050781 56.433594 35.632812 57.054688 C 35.21875 57.679688 34.835938 58.320312 34.480469 58.980469 C 34.128906 59.640625 33.808594 60.316406 33.519531 61.007812 C 33.234375 61.703125 32.980469 62.40625 32.765625 63.121094 C 32.546875 63.839844 32.363281 64.566406 32.21875 65.300781 C 32.070312 66.035156 31.960938 66.773438 31.886719 67.519531 C 31.8125 68.265625 31.773438 69.011719 31.773438 69.761719 L 31.773438 146.015625 C 31.777344 147.359375 31.894531 148.6875 32.128906 150.007812 C 32.363281 151.328125 32.714844 152.617188 33.175781 153.875 C 33.636719 155.132812 34.203125 156.34375 34.875 157.503906 C 35.550781 158.660156 36.320312 159.753906 37.183594 160.777344 C 38.046875 161.800781 38.996094 162.742188 40.027344 163.597656 C 41.054688 164.457031 42.152344 165.21875 43.316406 165.882812 C 44.480469 166.546875 45.691406 167.105469 46.953125 167.558594 C 48.214844 168.011719 49.503906 168.347656 50.828125 168.574219 L 50.828125 187.957031 C 50.828125 188.335938 50.878906 188.703125 50.988281 189.066406 C 51.097656 189.425781 51.257812 189.765625 51.46875 190.078125 C 51.675781 190.390625 51.925781 190.667969 52.21875 190.90625 C 52.511719 191.148438 52.832031 191.339844 53.179688 191.484375 C 53.527344 191.628906 53.886719 191.71875 54.265625 191.753906 C 54.640625 191.792969 55.011719 191.773438 55.382812 191.699219 C 55.75 191.628906 56.101562 191.5 56.433594 191.324219 C 56.765625 191.144531 57.066406 190.921875 57.332031 190.65625 L 79.078125 168.894531 L 115.605469 168.894531 L 115.605469 207.023438 C 115.605469 207.769531 115.644531 208.519531 115.71875 209.265625 C 115.792969 210.007812 115.902344 210.75 116.046875 211.484375 C 116.195312 212.21875 116.375 212.945312 116.59375 213.660156 C 116.8125 214.378906 117.066406 215.082031 117.351562 215.773438 C 117.636719 216.464844 117.957031 217.140625 118.3125 217.800781 C 118.664062 218.460938 119.050781 219.105469 119.464844 219.726562 C 119.882812 220.347656 120.328125 220.949219 120.800781 221.527344 C 121.277344 222.109375 121.777344 222.660156 122.308594 223.191406 C 122.835938 223.722656 123.390625 224.222656 123.96875 224.699219 C 124.546875 225.175781 125.148438 225.621094 125.769531 226.035156 C 126.394531 226.453125 127.035156 226.835938 127.695312 227.191406 C 128.355469 227.542969 129.03125 227.863281 129.722656 228.152344 C 130.414062 228.4375 131.117188 228.691406 131.832031 228.910156 C 132.550781 229.125 133.273438 229.308594 134.007812 229.457031 C 134.742188 229.601562 135.484375 229.710938 136.226562 229.785156 C 136.972656 229.859375 137.71875 229.898438 138.46875 229.898438 L 220.722656 229.898438 L 242.464844 251.660156 C 242.730469 251.929688 243.03125 252.152344 243.363281 252.328125 C 243.695312 252.507812 244.046875 252.632812 244.417969 252.707031 C 244.785156 252.78125 245.160156 252.796875 245.535156 252.761719 C 245.910156 252.722656 246.269531 252.632812 246.621094 252.488281 C 246.96875 252.34375 247.289062 252.152344 247.578125 251.914062 C 247.871094 251.671875 248.121094 251.398438 248.332031 251.082031 C 248.539062 250.769531 248.699219 250.433594 248.808594 250.070312 C 248.917969 249.710938 248.972656 249.339844 248.972656 248.964844 L 248.972656 229.578125 C 250.292969 229.355469 251.582031 229.015625 252.84375 228.5625 C 254.105469 228.113281 255.320312 227.554688 256.480469 226.886719 C 257.644531 226.222656 258.742188 225.460938 259.773438 224.605469 C 260.800781 223.746094 261.75 222.804688 262.613281 221.78125 C 263.480469 220.757812 264.25 219.667969 264.921875 218.507812 C 265.59375 217.347656 266.164062 216.140625 266.625 214.882812 C 267.085938 213.621094 267.433594 212.332031 267.667969 211.011719 C 267.902344 209.691406 268.023438 208.363281 268.023438 207.023438 L 268.023438 130.765625 C 268.023438 130.015625 267.984375 129.269531 267.910156 128.523438 C 267.835938 127.777344 267.726562 127.039062 267.582031 126.304688 C 267.433594 125.570312 267.25 124.84375 267.035156 124.128906 C 266.816406 123.410156 266.5625 122.707031 266.277344 122.015625 C 265.992188 121.324219 265.671875 120.648438 265.316406 119.988281 C 264.964844 119.324219 264.578125 118.683594 264.164062 118.0625 C 263.746094 117.4375 263.300781 116.839844 262.828125 116.257812 C 262.351562 115.679688 261.851562 115.125 261.320312 114.597656 C 260.792969 114.066406 260.238281 113.5625 259.660156 113.089844 C 259.082031 112.613281 258.480469 112.167969 257.859375 111.75 C 257.234375 111.335938 256.59375 110.949219 255.933594 110.597656 C 255.273438 110.242188 254.597656 109.921875 253.90625 109.636719 C 253.214844 109.351562 252.511719 109.097656 251.796875 108.878906 C 251.078125 108.660156 250.355469 108.480469 249.621094 108.332031 C 248.886719 108.1875 248.144531 108.074219 247.402344 108 C 246.65625 107.925781 245.910156 107.890625 245.160156 107.890625 Z M 77.5 161.269531 C 76.449219 161.269531 75.550781 161.640625 74.804688 162.382812 L 58.449219 178.753906 L 58.449219 165.082031 C 58.449219 164.574219 58.351562 164.089844 58.15625 163.621094 C 57.964844 163.15625 57.6875 162.742188 57.332031 162.386719 C 56.972656 162.027344 56.5625 161.753906 56.09375 161.558594 C 55.628906 161.363281 55.140625 161.269531 54.636719 161.269531 C 53.636719 161.265625 52.644531 161.167969 51.664062 160.972656 C 50.683594 160.777344 49.730469 160.484375 48.808594 160.101562 C 47.882812 159.71875 47.003906 159.25 46.171875 158.691406 C 45.34375 158.136719 44.574219 157.503906 43.863281 156.796875 C 43.15625 156.085938 42.527344 155.316406 41.96875 154.484375 C 41.414062 153.652344 40.945312 152.773438 40.5625 151.851562 C 40.175781 150.925781 39.886719 149.972656 39.691406 148.992188 C 39.496094 148.007812 39.394531 147.019531 39.394531 146.015625 L 39.394531 69.761719 C 39.394531 68.757812 39.496094 67.769531 39.691406 66.785156 C 39.886719 65.804688 40.175781 64.851562 40.5625 63.925781 C 40.945312 63.003906 41.414062 62.125 41.96875 61.292969 C 42.527344 60.460938 43.15625 59.691406 43.863281 58.980469 C 44.574219 58.273438 45.34375 57.640625 46.171875 57.085938 C 47.003906 56.527344 47.882812 56.058594 48.808594 55.675781 C 49.730469 55.292969 50.683594 55 51.664062 54.804688 C 52.644531 54.609375 53.636719 54.511719 54.636719 54.507812 L 153.710938 54.507812 C 154.710938 54.511719 155.699219 54.609375 156.683594 54.804688 C 157.664062 55 158.617188 55.292969 159.539062 55.675781 C 160.464844 56.058594 161.339844 56.527344 162.171875 57.085938 C 163.003906 57.640625 163.773438 58.273438 164.480469 58.980469 C 165.1875 59.691406 165.820312 60.460938 166.375 61.292969 C 166.933594 62.125 167.402344 63.003906 167.785156 63.925781 C 168.167969 64.851562 168.460938 65.804688 168.65625 66.785156 C 168.851562 67.769531 168.949219 68.757812 168.953125 69.761719 L 168.953125 146.015625 C 168.949219 147.019531 168.851562 148.007812 168.65625 148.992188 C 168.460938 149.972656 168.167969 150.925781 167.785156 151.851562 C 167.402344 152.773438 166.933594 153.652344 166.375 154.484375 C 165.820312 155.316406 165.1875 156.085938 164.480469 156.796875 C 163.773438 157.503906 163.003906 158.136719 162.171875 158.691406 C 161.339844 159.25 160.464844 159.71875 159.539062 160.101562 C 158.617188 160.484375 157.664062 160.777344 156.683594 160.972656 C 155.699219 161.167969 154.710938 161.265625 153.710938 161.269531 Z M 260.402344 207.023438 C 260.402344 208.023438 260.304688 209.015625 260.105469 209.996094 C 259.910156 210.976562 259.621094 211.929688 259.238281 212.855469 C 258.855469 213.78125 258.382812 214.660156 257.828125 215.492188 C 257.273438 216.324219 256.640625 217.09375 255.933594 217.800781 C 255.226562 218.507812 254.457031 219.140625 253.625 219.695312 C 252.792969 220.253906 251.914062 220.722656 250.992188 221.109375 C 250.066406 221.492188 249.113281 221.78125 248.132812 221.976562 C 247.152344 222.171875 246.160156 222.273438 245.160156 222.273438 C 244.65625 222.273438 244.167969 222.371094 243.703125 222.5625 C 243.234375 222.757812 242.824219 223.03125 242.464844 223.390625 C 242.109375 223.746094 241.835938 224.160156 241.640625 224.628906 C 241.449219 225.09375 241.351562 225.582031 241.351562 226.085938 L 241.351562 239.761719 L 224.996094 223.390625 C 224.25 222.644531 223.351562 222.273438 222.296875 222.273438 L 138.46875 222.273438 C 137.46875 222.273438 136.476562 222.171875 135.496094 221.976562 C 134.515625 221.78125 133.5625 221.492188 132.636719 221.109375 C 131.714844 220.722656 130.835938 220.253906 130.003906 219.695312 C 129.171875 219.140625 128.402344 218.507812 127.695312 217.800781 C 126.988281 217.09375 126.355469 216.324219 125.800781 215.492188 C 125.246094 214.660156 124.773438 213.78125 124.390625 212.855469 C 124.007812 211.929688 123.71875 210.976562 123.523438 209.996094 C 123.324219 209.015625 123.226562 208.023438 123.226562 207.023438 L 123.226562 168.894531 L 153.710938 168.894531 C 154.457031 168.894531 155.203125 168.855469 155.949219 168.78125 C 156.695312 168.707031 157.433594 168.597656 158.167969 168.449219 C 158.902344 168.304688 159.628906 168.121094 160.34375 167.902344 C 161.058594 167.6875 161.761719 167.433594 162.457031 167.144531 C 163.148438 166.859375 163.820312 166.539062 164.480469 166.1875 C 165.140625 165.832031 165.785156 165.449219 166.40625 165.03125 C 167.027344 164.613281 167.628906 164.167969 168.207031 163.695312 C 168.785156 163.21875 169.339844 162.714844 169.867188 162.1875 C 170.398438 161.65625 170.902344 161.101562 171.375 160.523438 C 171.851562 159.945312 172.296875 159.34375 172.710938 158.722656 C 173.128906 158.097656 173.511719 157.457031 173.867188 156.796875 C 174.21875 156.136719 174.539062 155.460938 174.824219 154.769531 C 175.113281 154.074219 175.363281 153.371094 175.582031 152.65625 C 175.800781 151.9375 175.984375 151.214844 176.128906 150.476562 C 176.277344 149.742188 176.386719 149.003906 176.460938 148.257812 C 176.535156 147.511719 176.570312 146.765625 176.574219 146.015625 L 176.574219 115.515625 L 245.160156 115.515625 C 246.160156 115.515625 247.152344 115.613281 248.132812 115.8125 C 249.113281 116.007812 250.066406 116.296875 250.992188 116.679688 C 251.914062 117.0625 252.792969 117.535156 253.625 118.089844 C 254.457031 118.648438 255.226562 119.28125 255.933594 119.988281 C 256.640625 120.695312 257.273438 121.464844 257.828125 122.296875 C 258.382812 123.128906 258.855469 124.007812 259.238281 124.933594 C 259.621094 125.855469 259.910156 126.808594 260.105469 127.792969 C 260.304688 128.773438 260.402344 129.765625 260.402344 130.765625 Z M 260.402344 207.023438 " fill-opacity="1" fill-rule="nonzero"/></g><path fill="#000000" d="M 122.464844 133.054688 C 122.765625 132.648438 122.980469 132.203125 123.105469 131.710938 C 123.230469 131.222656 123.257812 130.726562 123.1875 130.226562 C 123.117188 129.726562 122.953125 129.257812 122.695312 128.824219 C 122.4375 128.386719 122.105469 128.019531 121.703125 127.714844 L 116.117188 123.523438 C 117.199219 121.742188 118.019531 119.847656 118.578125 117.839844 C 119.140625 115.832031 119.417969 113.785156 119.414062 111.703125 L 119.414062 96.449219 C 119.414062 95.699219 119.378906 94.953125 119.304688 94.207031 C 119.230469 93.460938 119.121094 92.722656 118.976562 91.988281 C 118.828125 91.253906 118.648438 90.527344 118.429688 89.808594 C 118.214844 89.09375 117.960938 88.386719 117.675781 87.695312 C 117.386719 87.003906 117.070312 86.328125 116.714844 85.667969 C 116.363281 85.003906 115.976562 84.363281 115.5625 83.742188 C 115.144531 83.117188 114.699219 82.515625 114.226562 81.9375 C 113.75 81.359375 113.25 80.804688 112.71875 80.273438 C 112.1875 79.742188 111.636719 79.242188 111.054688 78.765625 C 110.476562 78.289062 109.875 77.84375 109.253906 77.429688 C 108.632812 77.011719 107.988281 76.628906 107.328125 76.273438 C 106.667969 75.921875 105.992188 75.601562 105.300781 75.316406 C 104.609375 75.027344 103.90625 74.777344 103.1875 74.558594 C 102.472656 74.339844 101.746094 74.160156 101.011719 74.011719 C 100.277344 73.867188 99.539062 73.757812 98.792969 73.683594 C 98.046875 73.609375 97.300781 73.574219 96.550781 73.574219 C 95.804688 73.574219 95.054688 73.609375 94.3125 73.683594 C 93.566406 73.757812 92.828125 73.867188 92.09375 74.011719 C 91.359375 74.160156 90.632812 74.339844 89.914062 74.558594 C 89.199219 74.777344 88.496094 75.027344 87.804688 75.316406 C 87.109375 75.601562 86.433594 75.921875 85.773438 76.273438 C 85.113281 76.628906 84.472656 77.011719 83.851562 77.429688 C 83.226562 77.84375 82.628906 78.289062 82.046875 78.765625 C 81.46875 79.242188 80.914062 79.742188 80.386719 80.273438 C 79.855469 80.804688 79.355469 81.359375 78.878906 81.9375 C 78.402344 82.515625 77.957031 83.117188 77.542969 83.742188 C 77.125 84.363281 76.742188 85.003906 76.390625 85.667969 C 76.035156 86.328125 75.714844 87.003906 75.429688 87.695312 C 75.144531 88.386719 74.890625 89.09375 74.675781 89.808594 C 74.457031 90.527344 74.273438 91.253906 74.128906 91.988281 C 73.984375 92.722656 73.871094 93.460938 73.800781 94.207031 C 73.726562 94.953125 73.6875 95.699219 73.6875 96.449219 L 73.6875 111.703125 C 73.6875 112.78125 73.765625 113.855469 73.917969 114.925781 C 74.066406 115.996094 74.292969 117.046875 74.59375 118.085938 C 74.894531 119.125 75.269531 120.132812 75.710938 121.117188 C 76.15625 122.101562 76.667969 123.050781 77.246094 123.964844 C 77.824219 124.875 78.464844 125.742188 79.164062 126.5625 C 79.867188 127.382812 80.621094 128.152344 81.429688 128.867188 C 82.242188 129.582031 83.097656 130.234375 84 130.828125 C 84.902344 131.417969 85.839844 131.945312 86.816406 132.40625 C 87.796875 132.863281 88.800781 133.253906 89.832031 133.570312 C 90.863281 133.886719 91.914062 134.128906 92.980469 134.296875 C 94.042969 134.46875 95.117188 134.558594 96.195312 134.574219 C 97.277344 134.589844 98.351562 134.53125 99.421875 134.394531 C 100.492188 134.257812 101.550781 134.046875 102.589844 133.761719 C 103.628906 133.476562 104.644531 133.117188 105.636719 132.6875 C 106.625 132.257812 107.582031 131.761719 108.5 131.195312 C 109.421875 130.628906 110.296875 130.003906 111.128906 129.3125 L 117.128906 133.816406 C 117.53125 134.121094 117.980469 134.332031 118.46875 134.460938 C 118.960938 134.585938 119.453125 134.613281 119.953125 134.539062 C 120.453125 134.46875 120.921875 134.304688 121.355469 134.046875 C 121.792969 133.789062 122.160156 133.457031 122.464844 133.054688 Z M 96.550781 126.953125 C 95.550781 126.953125 94.5625 126.851562 93.578125 126.65625 C 92.597656 126.460938 91.644531 126.171875 90.722656 125.789062 C 89.796875 125.402344 88.921875 124.933594 88.089844 124.378906 C 87.257812 123.820312 86.488281 123.1875 85.78125 122.480469 C 85.070312 121.773438 84.441406 121.003906 83.882812 120.171875 C 83.328125 119.339844 82.859375 118.460938 82.476562 117.535156 C 82.09375 116.609375 81.800781 115.65625 81.605469 114.675781 C 81.410156 113.695312 81.3125 112.703125 81.308594 111.703125 L 81.308594 96.449219 C 81.308594 95.449219 81.40625 94.457031 81.601562 93.476562 C 81.796875 92.492188 82.085938 91.539062 82.46875 90.613281 C 82.855469 89.6875 83.324219 88.808594 83.878906 87.976562 C 84.433594 87.144531 85.066406 86.375 85.773438 85.664062 C 86.480469 84.957031 87.253906 84.324219 88.085938 83.769531 C 88.917969 83.214844 89.792969 82.742188 90.71875 82.359375 C 91.644531 81.976562 92.597656 81.6875 93.578125 81.492188 C 94.558594 81.296875 95.550781 81.199219 96.550781 81.199219 C 97.554688 81.199219 98.542969 81.296875 99.527344 81.492188 C 100.507812 81.6875 101.460938 81.976562 102.386719 82.359375 C 103.308594 82.742188 104.1875 83.214844 105.019531 83.769531 C 105.851562 84.324219 106.621094 84.957031 107.328125 85.664062 C 108.039062 86.375 108.667969 87.144531 109.226562 87.976562 C 109.78125 88.808594 110.25 89.6875 110.632812 90.613281 C 111.015625 91.539062 111.304688 92.492188 111.5 93.476562 C 111.695312 94.457031 111.792969 95.449219 111.792969 96.449219 L 111.792969 111.703125 C 111.796875 114.261719 111.191406 116.664062 109.976562 118.917969 L 106.460938 116.277344 C 106.054688 115.972656 105.609375 115.761719 105.121094 115.636719 C 104.628906 115.511719 104.136719 115.484375 103.636719 115.554688 C 103.136719 115.625 102.667969 115.792969 102.234375 116.046875 C 101.800781 116.304688 101.429688 116.636719 101.128906 117.042969 C 100.824219 117.445312 100.609375 117.894531 100.484375 118.382812 C 100.359375 118.871094 100.332031 119.367188 100.402344 119.867188 C 100.476562 120.367188 100.640625 120.835938 100.894531 121.269531 C 101.152344 121.703125 101.484375 122.074219 101.886719 122.378906 L 104.765625 124.539062 C 102.265625 126.152344 99.527344 126.957031 96.550781 126.953125 Z M 96.550781 126.953125 " fill-opacity="1" fill-rule="nonzero"/><path fill="#000000" d="M 218.265625 194.300781 L 199.210938 140.921875 C 199.078125 140.550781 198.894531 140.210938 198.65625 139.898438 C 198.417969 139.585938 198.140625 139.3125 197.820312 139.085938 C 197.5 138.859375 197.152344 138.6875 196.777344 138.570312 C 196.402344 138.449219 196.019531 138.390625 195.625 138.390625 C 195.230469 138.390625 194.847656 138.449219 194.472656 138.570312 C 194.097656 138.6875 193.75 138.859375 193.429688 139.085938 C 193.109375 139.3125 192.832031 139.585938 192.59375 139.898438 C 192.355469 140.210938 192.171875 140.550781 192.039062 140.921875 L 172.984375 194.300781 C 172.890625 194.539062 172.824219 194.785156 172.78125 195.035156 C 172.734375 195.289062 172.714844 195.539062 172.722656 195.796875 C 172.730469 196.050781 172.761719 196.304688 172.820312 196.550781 C 172.875 196.800781 172.957031 197.042969 173.0625 197.273438 C 173.167969 197.507812 173.296875 197.726562 173.445312 197.933594 C 173.597656 198.140625 173.765625 198.328125 173.953125 198.503906 C 174.140625 198.675781 174.34375 198.828125 174.5625 198.960938 C 174.78125 199.09375 175.011719 199.203125 175.25 199.289062 C 175.492188 199.375 175.738281 199.433594 175.988281 199.46875 C 176.242188 199.507812 176.496094 199.519531 176.75 199.503906 C 177.003906 199.488281 177.257812 199.449219 177.503906 199.382812 C 177.75 199.320312 177.988281 199.230469 178.21875 199.117188 C 178.445312 199.003906 178.660156 198.867188 178.863281 198.710938 C 179.066406 198.554688 179.25 198.382812 179.417969 198.1875 C 179.582031 197.996094 179.730469 197.789062 179.855469 197.566406 C 179.980469 197.34375 180.082031 197.109375 180.160156 196.867188 L 186.0625 180.332031 L 205.1875 180.332031 L 211.089844 196.867188 C 211.273438 197.328125 211.53125 197.738281 211.875 198.097656 C 212.214844 198.457031 212.609375 198.738281 213.058594 198.941406 C 213.511719 199.148438 213.984375 199.261719 214.476562 199.28125 C 214.972656 199.300781 215.453125 199.226562 215.917969 199.0625 C 216.386719 198.894531 216.804688 198.648438 217.171875 198.316406 C 217.542969 197.988281 217.835938 197.601562 218.054688 197.15625 C 218.273438 196.710938 218.402344 196.242188 218.4375 195.75 C 218.472656 195.257812 218.414062 194.773438 218.265625 194.300781 Z M 188.785156 172.707031 L 195.625 153.542969 L 202.464844 172.707031 Z M 188.785156 172.707031 " fill-opacity="1" fill-rule="nonzero"/></svg>